<?xml version="1.0" standalone="no"?>
<!DOCTYPE svg PUBLIC "-//W3C//DTD SVG 20010904//EN"
 "http://www.w3.org/TR/2001/REC-SVG-20010904/DTD/svg10.dtd">
<svg version="1.0" xmlns="http://www.w3.org/2000/svg"
 width="1280.000000pt" height="1277.000000pt" viewBox="0 0 1280.000000 1277.000000"
 preserveAspectRatio="xMidYMid meet">
<metadata>
Created by potrace 1.15, written by Peter Selinger 2001-2017
</metadata>
<g transform="translate(0.000000,1277.000000) scale(0.100000,-0.100000)"
fill="#caa79b" stroke="none">
<path d="M5762 12755 c-62 -6 -115 -15 -119 -19 -8 -8 2 -100 127 -1139 l70
-579 -47 -126 c-25 -70 -50 -131 -54 -135 -11 -13 2 -93 -215 1323 -53 344
-98 627 -100 629 -2 3 -255 -38 -261 -43 -1 0 86 -437 192 -971 106 -533 191
-972 188 -975 -5 -5 -5 -6 -168 183 -60 70 -120 130 -132 133 -16 4 -26 18
-33 43 -5 20 -92 366 -193 769 -101 403 -186 735 -189 737 -5 5 -245 -59 -253
-67 -3 -3 198 -681 445 -1509 248 -827 449 -1508 447 -1513 -2 -5 -17 38 -34
95 -17 57 -155 514 -306 1014 -151 501 -341 1131 -422 1400 -81 270 -151 494
-155 499 -8 8 -226 -58 -244 -74 -7 -7 30 -120 229 -685 29 -82 152 -436 274
-785 l221 -635 -26 -170 c-15 -93 -30 -173 -34 -178 -3 -4 -59 127 -124 290
-65 164 -160 404 -212 534 l-94 237 3 118 c2 110 0 125 -26 191 -34 86 -89
152 -135 161 -37 8 -11 -48 -237 522 -64 162 -118 296 -119 297 -1 2 -57 -21
-125 -49 -93 -39 -121 -55 -118 -67 2 -9 113 -257 246 -552 l241 -536 -1 -69
c-1 -38 -4 -80 -8 -93 l-6 -24 -12 24 c-6 13 -86 182 -178 374 -92 193 -216
456 -277 585 -61 129 -114 239 -118 243 -6 6 -219 -91 -238 -108 -2 -2 88
-176 199 -387 362 -686 431 -819 427 -823 -3 -3 -76 44 -164 104 l-160 109
-245 428 c-134 235 -249 434 -255 442 -9 13 -27 5 -123 -52 -72 -44 -109 -72
-104 -79 50 -83 429 -692 678 -1087 175 -278 411 -653 525 -835 114 -181 305
-485 424 -675 l218 -345 5 -70 c4 -47 2 -67 -4 -60 -6 6 -453 674 -993 1485
-540 811 -988 1481 -995 1489 -11 11 -30 2 -119 -59 -58 -40 -106 -75 -106
-78 0 -5 457 -633 886 -1217 77 -104 150 -205 163 -223 17 -25 27 -64 42 -165
10 -72 21 -143 24 -155 3 -14 2 -22 -4 -20 -5 1 -72 84 -148 183 -76 99 -226
292 -333 428 -298 381 -357 456 -414 533 -39 51 -363 467 -392 503 -2 2 -51
-36 -109 -84 l-106 -87 24 -27 c24 -25 1288 -1509 1316 -1544 8 -10 12 -19 10
-22 -3 -2 -55 15 -116 38 l-112 42 -343 381 c-189 210 -471 523 -627 697
l-284 316 -66 -58 c-36 -33 -80 -74 -98 -93 l-32 -33 609 -620 c434 -442 610
-628 614 -648 8 -37 119 -153 160 -167 20 -6 116 -95 268 -247 l237 -238 20
-72 c20 -73 20 -73 0 -73 -13 0 -130 107 -317 287 -163 158 -490 474 -727 702
-236 228 -522 505 -635 615 -113 111 -238 232 -278 271 l-73 70 -89 -95 c-49
-52 -89 -98 -90 -101 0 -4 307 -279 682 -612 l683 -606 39 -103 c21 -57 47
-125 58 -151 10 -27 14 -47 8 -45 -12 4 -167 131 -1074 876 -303 248 -553 452
-556 452 -12 0 -161 -200 -156 -209 6 -8 230 -178 1441 -1088 127 -95 231
-177 233 -181 1 -5 -51 -1 -115 8 l-118 16 -160 115 c-88 63 -251 179 -361
258 -111 78 -206 152 -212 165 -31 68 -175 177 -266 200 -46 12 -103 48 -296
186 -132 94 -246 173 -253 175 -7 3 -42 -41 -84 -103 l-71 -107 141 -93 c78
-52 234 -154 347 -228 l205 -135 83 -136 c59 -96 78 -134 65 -131 -10 3 -223
130 -473 283 -250 153 -458 279 -462 281 -6 4 -142 -226 -136 -230 6 -5 670
-371 815 -450 79 -43 146 -82 149 -88 5 -7 -59 -8 -200 -3 l-207 7 -330 170
c-181 94 -331 169 -333 167 -18 -20 -115 -233 -109 -239 4 -5 142 -69 305
-144 164 -75 334 -154 378 -176 44 -22 104 -50 132 -61 46 -18 866 -393 1103
-504 55 -26 316 -146 580 -267 264 -121 490 -226 502 -234 23 -15 88 -103 81
-110 -4 -4 -524 217 -2273 966 -473 203 -866 370 -874 372 -15 3 -115 -232
-103 -243 4 -4 212 -84 462 -178 250 -94 672 -253 938 -354 l483 -182 99 -114
c55 -63 98 -116 96 -118 -2 -2 -122 37 -267 87 l-264 90 -65 68 c-53 55 -77
73 -130 92 -83 32 -187 34 -219 6 -22 -20 73 -50 -897 282 l-320 110 -37 -112
c-20 -61 -37 -119 -39 -130 -3 -16 85 -44 747 -238 l750 -219 57 -56 c32 -31
56 -59 54 -61 -4 -4 -157 37 -1160 310 -263 71 -482 126 -486 121 -17 -18
-108 -419 -97 -429 3 -3 319 -68 703 -145 384 -77 700 -141 701 -143 2 -2 -33
-13 -77 -26 l-81 -23 -612 111 c-337 61 -623 112 -637 114 -25 3 -25 1 -46
-122 -12 -69 -19 -128 -15 -132 3 -3 141 -25 306 -47 578 -80 1683 -231 2065
-283 212 -28 390 -56 395 -60 6 -6 0 -7 -15 -4 -74 15 -2750 369 -2755 364 -8
-7 -37 -249 -31 -255 2 -3 440 -44 973 -93 532 -49 1078 -99 1213 -111 l245
-23 30 -31 c16 -17 45 -40 63 -50 59 -35 179 -40 -1153 49 -291 20 -593 41
-670 46 -486 36 -709 50 -713 45 -5 -5 -21 -286 -21 -389 l-1 -59 1087 5 c737
4 1095 2 1110 -5 13 -6 23 -15 23 -22 0 -17 38 -49 90 -76 l45 -24 -45 -2
c-164 -9 -1157 -45 -1455 -53 -480 -14 -837 -28 -843 -35 -6 -6 14 -332 25
-410 5 -41 7 -44 32 -39 14 2 465 51 1001 109 536 58 1013 109 1060 114 47 5
86 9 87 8 1 -1 -24 -22 -55 -47 -49 -39 -57 -50 -57 -79 0 -50 37 -74 113 -73
57 1 59 0 54 -23 -3 -17 4 -31 22 -48 l26 -24 -178 -32 c-97 -17 -364 -65
-592 -107 -510 -93 -650 -118 -855 -154 -333 -58 -580 -104 -584 -107 -13 -10
127 -593 144 -600 7 -2 211 53 455 123 l443 126 174 -28 c95 -15 172 -32 170
-37 -3 -9 -23 -15 -742 -248 -242 -78 -441 -143 -443 -144 -6 -5 83 -245 91
-245 9 0 247 87 887 324 156 58 286 103 288 101 6 -6 -23 -40 -191 -226 -96
-105 -150 -174 -154 -192 -7 -34 7 -27 -425 -212 -153 -65 -278 -122 -278
-127 0 -6 98 -227 105 -236 1 -1 545 259 1209 579 664 320 1209 579 1212 577
2 -3 -85 -48 -194 -100 -706 -341 -2208 -1071 -2212 -1075 -3 -2 22 -56 54
-119 46 -89 63 -114 75 -109 9 4 321 170 693 370 l677 364 211 2 c116 0 213
-1 215 -3 4 -4 -420 -259 -685 -413 -58 -34 -208 -122 -335 -197 l-230 -136
-107 -12 c-59 -6 -125 -17 -145 -24 -47 -17 -213 -114 -213 -125 0 -10 167
-282 185 -300 12 -12 29 -5 122 56 107 71 109 71 216 88 60 9 111 14 114 12 6
-6 -61 -55 -239 -176 -84 -57 -135 -98 -131 -105 4 -6 38 -55 76 -109 l69 -98
32 24 c227 172 356 263 356 252 0 -3 -54 -110 -121 -236 l-120 -230 52 -62
c29 -34 68 -79 86 -99 l32 -37 448 392 c246 215 479 419 518 453 38 34 356
311 705 617 l635 557 69 15 c59 14 90 14 75 2 -20 -17 -1689 -1557 -2077
-1916 l-262 -244 67 -71 c36 -39 77 -82 90 -96 l23 -25 373 373 372 372 180
64 c99 35 182 62 184 60 7 -6 -29 -47 -175 -201 -83 -87 -274 -291 -424 -453
-150 -162 -289 -312 -309 -333 l-36 -39 41 -36 c23 -21 69 -60 101 -89 l60
-52 448 524 c246 289 452 525 457 525 5 0 7 -8 4 -17 -3 -10 -17 -72 -32 -138
-14 -66 -32 -130 -40 -141 -7 -12 -166 -212 -353 -444 -188 -232 -339 -426
-336 -430 3 -4 49 -42 104 -83 l98 -76 277 375 c236 318 285 379 329 408 62
39 144 152 162 223 9 37 67 122 256 379 l244 332 74 34 c41 18 78 34 83 36 4
2 5 -11 1 -30 -4 -20 -136 -217 -347 -518 -187 -267 -466 -665 -619 -885 -154
-220 -288 -411 -298 -424 -10 -13 -16 -27 -13 -32 10 -16 204 -141 214 -137 6
2 136 201 291 443 l280 439 166 104 c91 56 170 101 174 100 4 -2 -77 -147
-180 -323 -427 -730 -523 -896 -519 -901 19 -18 223 -123 229 -117 4 4 102
188 219 408 117 220 264 499 328 620 l117 219 3 -151 3 -151 -259 -518 -259
-517 121 -57 c67 -32 143 -67 169 -78 l49 -22 54 52 c30 28 57 49 60 46 3 -3
-6 -33 -20 -66 l-24 -61 101 -39 c150 -58 146 -57 156 -30 33 87 42 102 51 88
5 -8 10 -40 10 -71 0 -33 5 -61 13 -67 17 -14 364 -125 378 -120 6 2 72 220
145 483 74 264 188 669 253 900 66 231 179 634 251 895 l132 475 56 57 c31 32
57 56 59 54 4 -3 -370 -1501 -616 -2476 -61 -239 -109 -435 -107 -437 2 -2 59
-16 127 -32 144 -33 127 -44 158 104 20 103 47 232 100 485 16 80 54 260 82
400 l53 255 115 147 c64 81 117 142 119 134 2 -7 -16 -118 -38 -247 -23 -129
-49 -280 -59 -335 -16 -95 -21 -106 -71 -174 -67 -94 -85 -134 -105 -246 -20
-109 -10 -185 32 -235 l26 -30 -27 -161 c-15 -88 -25 -162 -22 -165 9 -9 251
-42 257 -35 3 4 25 165 49 357 l43 350 56 90 c52 84 56 87 59 59 2 -17 -17
-219 -43 -449 -48 -444 -48 -434 2 -435 12 0 77 -4 145 -9 68 -6 155 -12 194
-15 l72 -5 6 167 c3 92 9 221 12 287 l6 119 43 -90 c41 -89 80 -134 116 -134
31 0 77 48 94 100 13 39 16 78 13 173 l-3 122 -97 200 c-53 110 -108 227 -122
259 l-26 60 15 395 c8 218 20 515 25 660 6 146 12 267 14 269 2 2 39 -61 82
-140 104 -191 130 -214 180 -167 l22 20 7 -153 c4 -84 5 -214 3 -288 -1 -74 3
-175 9 -225 7 -49 24 -434 39 -855 15 -421 29 -768 33 -771 6 -7 250 7 257 14
5 4 -29 462 -87 1204 l-41 522 32 78 c57 136 80 186 85 181 5 -4 52 -410 165
-1427 33 -294 62 -536 64 -538 4 -4 231 24 252 31 7 3 -11 143 -53 407 -35
222 -85 548 -113 724 -27 176 -68 434 -90 574 -36 235 -41 285 -22 254 34 -54
257 -322 276 -331 18 -8 27 -23 34 -59 20 -92 191 -920 251 -1206 32 -159 62
-291 65 -295 11 -10 256 50 256 64 0 11 -99 402 -591 2334 -98 387 -178 709
-176 714 2 6 22 -62 44 -149 22 -88 149 -583 282 -1100 133 -517 292 -1133
352 -1370 61 -236 112 -431 113 -432 3 -3 248 66 254 71 2 2 -36 131 -83 287
-48 156 -102 334 -120 394 -18 61 -56 184 -83 275 -291 958 -354 1167 -354
1180 -1 23 64 334 72 343 3 4 57 -138 119 -315 62 -178 148 -425 191 -549 79
-223 79 -226 70 -285 -16 -95 -12 -155 15 -234 36 -106 83 -166 137 -177 20
-4 30 -14 37 -37 12 -39 140 -410 216 -623 43 -122 62 -163 74 -162 9 0 66 19
126 43 75 29 109 47 108 57 -2 8 -102 261 -223 563 l-220 549 6 76 c7 95 12
112 24 90 5 -9 79 -180 164 -380 84 -200 200 -472 256 -604 56 -132 105 -244
110 -249 10 -10 229 82 236 99 2 6 -77 181 -177 390 -352 737 -399 838 -395
843 3 2 74 -47 159 -109 l154 -114 233 -450 c128 -247 235 -452 237 -455 5 -5
180 86 213 110 21 15 19 19 -78 190 -55 96 -138 243 -184 325 -176 314 -1317
2302 -1342 2339 -22 33 -26 49 -26 112 0 41 3 74 8 74 4 0 59 -88 122 -195
111 -188 451 -749 898 -1480 118 -192 336 -550 484 -795 149 -245 276 -450
282 -457 8 -9 36 3 118 55 59 37 108 71 108 75 0 5 -227 347 -503 761 l-504
752 -16 154 c-9 84 -15 155 -13 157 2 2 24 -24 49 -59 63 -87 745 -1042 788
-1103 156 -222 382 -535 386 -535 9 0 213 154 213 160 0 3 -112 147 -248 321
-892 1138 -1034 1321 -1029 1325 3 3 54 -15 113 -40 l109 -46 337 -407 c186
-225 454 -549 597 -721 142 -173 261 -315 264 -315 7 -3 197 163 197 171 0 5
-51 64 -113 133 -62 68 -155 172 -207 230 -52 58 -262 290 -466 515 -267 295
-374 419 -379 442 -10 46 -92 140 -147 168 -34 17 -102 85 -268 269 -221 245
-222 246 -237 311 -8 36 -13 68 -10 71 13 12 49 -12 108 -75 35 -37 188 -197
339 -357 151 -159 415 -436 585 -615 395 -414 783 -824 858 -906 32 -35 62
-64 66 -64 11 0 148 128 171 160 l20 28 -657 635 -658 634 -48 147 c-27 81
-47 150 -44 153 3 2 106 -85 229 -195 123 -110 462 -412 753 -672 292 -260
544 -486 561 -502 l31 -29 88 102 c71 84 85 105 73 113 -8 6 -140 114 -294
240 -153 127 -441 363 -639 525 -625 512 -686 563 -682 567 11 11 214 -30 242
-49 17 -11 178 -135 358 -275 251 -194 332 -263 347 -292 37 -73 190 -190 267
-205 23 -4 109 -64 276 -195 133 -103 246 -186 250 -183 18 11 148 194 145
204 -2 6 -152 117 -333 248 l-330 237 -74 133 c-40 72 -70 135 -67 139 4 3
207 -129 452 -294 246 -164 452 -300 459 -302 7 -2 19 8 28 22 9 14 41 63 71
110 l55 84 -330 202 c-181 111 -339 207 -352 213 -70 38 -267 162 -267 170 0
5 21 6 48 3 26 -3 117 -11 202 -17 l155 -11 205 -116 c113 -63 259 -146 325
-184 66 -37 123 -64 127 -60 11 12 118 211 118 221 0 9 -433 234 -1215 631
-253 128 -557 283 -675 345 -118 61 -406 209 -640 328 l-425 217 -33 51 c-18
28 -31 53 -29 56 6 5 43 -12 1157 -545 432 -206 877 -419 990 -472 113 -54
371 -177 573 -274 203 -97 371 -176 375 -176 12 1 113 233 105 241 -4 4 -208
92 -453 196 -245 104 -659 281 -921 393 l-477 203 -92 114 c-51 63 -90 116
-87 119 6 6 71 -18 347 -128 174 -69 175 -70 224 -129 40 -48 66 -68 125 -97
96 -46 179 -55 220 -24 l27 20 75 -29 c41 -17 108 -43 149 -58 41 -16 127 -49
190 -74 472 -184 764 -296 767 -293 11 11 90 242 85 248 -4 4 -335 118 -737
253 l-730 247 -60 58 c-32 33 -57 62 -54 65 3 2 124 -33 270 -79 895 -285
1351 -427 1354 -424 15 16 126 426 116 432 -8 5 -444 113 -988 244 -222 53
-399 99 -395 103 4 3 38 14 75 23 79 19 50 24 484 -75 652 -147 845 -189 852
-185 10 7 57 244 49 252 -8 7 -598 115 -2310 420 -241 43 -438 82 -438 85 0 4
8 5 18 3 59 -13 2735 -484 2738 -481 11 10 42 252 34 257 -9 6 -222 35 -795
110 -414 54 -1570 209 -1602 215 -19 3 -33 12 -33 20 0 7 -23 31 -52 52 -31
22 -46 39 -38 41 8 1 161 -14 340 -33 179 -20 510 -56 735 -80 438 -48 667
-74 1160 -129 170 -19 311 -34 312 -33 4 5 22 206 29 323 l7 122 -84 6 c-46 3
-529 22 -1074 42 -544 19 -1000 37 -1013 40 -12 2 -31 19 -42 36 -10 17 -43
47 -72 65 l-53 34 1174 -5 1173 -6 -6 182 c-4 101 -9 204 -12 230 l-6 48 -51
-5 c-57 -6 -1809 -122 -1977 -131 -58 -3 -115 -7 -127 -10 -30 -6 -29 10 1 24
13 6 40 25 60 43 30 26 36 38 34 62 -5 45 -46 71 -113 71 l-55 0 0 33 c0 21
-7 37 -21 47 l-22 15 24 5 c13 3 92 15 174 26 83 11 312 43 510 70 370 51 633
88 1188 164 175 24 321 47 324 50 19 19 -98 606 -120 606 -7 0 -213 -49 -458
-108 l-446 -108 -169 36 c-93 19 -168 39 -167 44 2 9 211 69 986 283 l208 57
-5 31 c-15 77 -68 226 -79 222 -11 -4 -552 -179 -1004 -325 -95 -30 -176 -52
-180 -49 -4 4 73 87 170 185 104 105 182 192 191 213 14 34 22 38 193 103 98
37 228 87 288 111 61 23 138 53 173 65 34 13 62 27 62 32 0 5 -21 61 -47 124
-35 87 -51 114 -62 111 -13 -3 -1214 -520 -2323 -1000 -71 -31 -128 -52 -128
-48 0 3 69 36 153 72 615 265 2284 993 2291 1000 8 7 -62 177 -93 228 -9 14
-77 -18 -1139 -535 l-274 -133 -221 7 -222 7 120 66 c132 73 459 249 612 330
54 28 200 107 324 175 l226 123 128 10 c119 9 134 13 213 51 46 22 97 49 113
61 34 24 40 7 -78 216 l-74 132 -113 -68 c-109 -66 -116 -69 -208 -80 -114
-13 -141 -14 -134 -3 2 4 90 61 195 127 105 65 191 123 190 129 -1 19 -134
209 -144 207 -5 -1 -92 -58 -192 -127 -100 -68 -185 -124 -188 -124 -13 0 3
31 120 235 125 217 126 218 109 244 -15 22 -113 150 -135 175 -4 4 -191 -140
-415 -320 -224 -181 -596 -480 -825 -664 -229 -184 -583 -469 -787 -633 l-371
-298 -66 -10 c-37 -6 -69 -9 -71 -6 -3 3 64 63 148 135 84 71 428 362 763 647
797 676 1337 1134 1459 1241 36 31 46 46 40 57 -5 8 -44 54 -87 101 l-79 86
-180 -167 c-99 -93 -272 -254 -384 -358 l-205 -190 -180 -54 c-99 -30 -182
-52 -184 -49 -4 4 183 191 780 780 l200 198 -96 95 -95 96 -474 -510 c-261
-281 -476 -509 -478 -506 -3 3 12 69 34 147 l38 143 368 419 c202 231 368 423
368 427 0 4 -44 44 -97 88 -63 52 -100 77 -107 71 -6 -5 -139 -168 -296 -363
-233 -290 -293 -359 -332 -380 -62 -35 -161 -158 -176 -219 -9 -36 -63 -109
-267 -364 l-256 -319 -86 -37 -85 -37 6 32 c4 17 41 77 83 132 43 55 199 260
348 455 149 195 361 472 470 615 109 143 248 325 308 405 61 80 118 154 129
166 10 11 18 24 18 30 -1 12 -199 156 -210 152 -5 -2 -143 -196 -308 -431
l-298 -428 -110 -62 c-231 -132 -248 -141 -241 -123 4 10 104 169 223 354 476
740 529 824 529 830 0 4 -49 37 -110 74 -97 59 -110 65 -121 50 -12 -19 -312
-532 -539 -922 -81 -140 -154 -262 -161 -270 -12 -12 -14 -2 -13 65 1 181 8
209 86 350 468 849 483 878 466 890 -9 7 -83 45 -164 85 l-147 74 -57 -48
c-31 -27 -59 -45 -62 -42 -4 4 6 32 21 63 21 44 25 58 14 64 -19 13 -217 99
-226 99 -4 0 -18 -27 -31 -60 -27 -67 -41 -76 -41 -26 0 18 -3 54 -6 79 l-6
45 -137 50 c-168 61 -241 85 -246 81 -2 -2 -98 -294 -213 -649 -115 -355 -277
-852 -360 -1105 -83 -253 -188 -576 -234 -719 l-83 -258 -58 -50 c-32 -28 -59
-49 -61 -47 -2 2 25 99 60 214 254 855 784 2652 784 2661 0 10 -247 82 -253
73 -2 -2 -73 -286 -158 -630 l-156 -627 -118 -136 c-64 -75 -121 -136 -125
-136 -4 0 -6 8 -4 18 2 9 24 112 49 227 100 466 89 429 150 505 74 92 92 130
116 244 18 84 20 106 10 154 -7 34 -21 66 -36 82 l-24 25 28 125 c16 69 32
144 36 166 l6 42 -128 24 c-70 14 -129 24 -131 23 -1 -1 -30 -161 -63 -356
l-60 -354 -56 -82 c-31 -46 -60 -83 -65 -83 -10 0 -18 -58 57 435 36 236 65
437 65 446 0 13 -25 19 -137 33 -240 29 -308 35 -313 25 -3 -5 -14 -118 -23
-251 -10 -134 -21 -258 -24 -276 -5 -31 -7 -29 -39 49 -44 111 -62 133 -108
137 -44 4 -68 -14 -99 -73 -24 -47 -40 -223 -25 -288 5 -22 42 -117 82 -211
40 -94 88 -208 106 -253 l33 -81 -32 -404 c-18 -221 -42 -518 -53 -658 -11
-140 -22 -257 -25 -260 -3 -3 -8 1 -11 9 -18 52 -143 289 -160 304 -28 25 -70
18 -96 -16 -14 -19 -21 -47 -24 -93 -4 -60 -1 -71 37 -149 32 -65 40 -91 35
-112 -6 -25 -5 -26 8 -15 14 11 21 4 53 -55 20 -37 70 -136 111 -221 40 -85
77 -152 82 -150 5 1 60 68 121 147 62 79 158 198 214 264 80 96 103 131 114
171 15 58 17 115 4 135 -6 8 -3 20 8 31 9 9 81 91 161 182 80 91 147 164 149
162 6 -6 -271 -1104 -279 -1104 -4 0 -11 12 -14 28 -21 84 -80 250 -97 267
-15 15 -24 17 -45 10 -40 -15 -64 -54 -71 -116 -5 -49 3 -79 80 -309 47 -140
88 -270 92 -287 8 -42 23 -41 66 3 18 20 59 58 90 85 l56 48 -76 -234 c-41
-129 -78 -235 -81 -235 -3 0 -16 44 -29 98 -27 112 -42 142 -75 142 -30 0 -52
-25 -65 -77 -10 -38 -8 -57 27 -185 22 -79 47 -181 57 -228 10 -47 21 -89 25
-93 4 -5 46 22 93 61 47 38 133 104 191 147 113 82 136 113 136 181 0 23 -6
37 -20 44 -26 14 -42 5 -147 -77 -46 -35 -83 -61 -83 -57 0 4 48 136 106 293
59 157 116 311 126 341 11 30 35 70 54 88 43 43 68 108 62 164 -4 37 15 97
135 418 76 206 149 404 162 440 13 36 39 108 60 160 20 52 87 232 150 400 217
582 262 700 267 705 2 3 13 -109 22 -248 30 -427 29 -421 46 -424 8 -2 111 76
229 172 118 97 218 178 223 181 5 3 -29 -70 -76 -163 -63 -124 -95 -178 -126
-207 -55 -50 -118 -181 -124 -256 -4 -48 -53 -153 -392 -835 l-388 -780 -7 50
c-4 28 -12 97 -18 155 -11 110 -21 130 -66 130 -28 0 -69 -45 -90 -98 -16 -40
-16 -51 -1 -175 23 -189 36 -331 36 -391 0 -84 4 -84 126 -12 60 35 177 99
259 143 135 70 153 83 183 127 49 74 39 146 -21 146 -13 0 -78 -32 -146 -70
-69 -39 -126 -69 -128 -67 -2 2 59 116 135 253 75 137 221 401 322 586 102
186 187 338 190 338 3 0 4 -66 2 -147 l-3 -148 -30 -27 c-16 -15 -43 -56 -58
-90 -26 -57 -29 -76 -35 -213 -3 -82 -13 -246 -22 -363 -9 -117 -14 -215 -11
-219 3 -3 45 11 92 30 47 20 85 33 85 29 0 -4 -9 -65 -20 -136 -11 -72 -17
-133 -12 -138 4 -4 59 11 122 33 63 22 218 71 344 109 238 72 271 88 323 157
28 36 37 98 20 134 -6 13 28 25 212 77 121 34 224 62 230 62 6 0 -105 -107
-247 -237 -225 -208 -653 -603 -824 -762 -32 -29 -58 -50 -58 -46 0 5 16 66
36 138 38 138 38 172 1 186 -31 12 -68 -4 -111 -48 -35 -35 -40 -51 -86 -228
-26 -105 -55 -202 -64 -216 -14 -20 -57 -141 -168 -464 -6 -18 -9 -35 -7 -37
2 -3 38 -1 79 4 41 5 155 14 253 20 162 10 182 13 217 35 59 37 75 78 43 110
-14 15 -31 16 -127 10 -61 -3 -120 -9 -131 -12 -18 -5 -19 -4 -5 11 9 9 83 65
165 125 115 84 158 111 191 116 48 7 120 63 139 107 10 26 512 404 1229 926
65 48 206 151 312 229 107 79 194 141 194 139 0 -2 -117 -219 -266 -493 -29
-53 -36 -75 -28 -83 8 -8 62 -6 205 8 169 17 230 19 194 6 -5 -2 -185 -108
-398 -235 -213 -128 -390 -229 -393 -226 -3 3 38 80 91 172 112 193 122 217
106 251 -27 60 -116 51 -216 -21 -59 -42 -63 -48 -174 -256 -206 -387 -260
-477 -304 -502 -31 -17 -54 -48 -119 -157 -44 -74 -123 -200 -175 -279 -51
-78 -95 -148 -96 -154 -1 -7 24 -16 63 -22 l64 -11 -109 -47 c-61 -26 -113
-47 -118 -47 -4 0 29 52 73 117 44 64 80 122 80 130 0 22 -38 53 -65 53 -13 0
-45 -10 -70 -22 -41 -20 -59 -42 -160 -193 -63 -93 -135 -198 -160 -233 -32
-43 -42 -64 -33 -67 7 -3 72 -16 143 -29 72 -14 181 -36 244 -50 125 -28 169
-31 220 -13 66 23 90 91 41 117 -10 5 -73 20 -140 34 -66 13 -123 26 -125 28
-2 2 103 45 234 94 l238 91 122 -20 c118 -20 123 -20 182 -2 42 13 69 29 89
52 35 40 38 65 9 94 -11 11 -19 22 -17 23 12 9 961 367 964 363 5 -4 -108
-128 -324 -355 -112 -118 -161 -177 -154 -184 6 -6 45 -18 89 -28 43 -10 143
-32 223 -50 80 -18 148 -36 152 -39 5 -4 -99 -33 -230 -64 -130 -31 -350 -84
-489 -117 -138 -33 -257 -60 -264 -60 -8 0 46 57 119 128 145 140 156 161 106
201 -34 27 -87 27 -157 1 -48 -18 -76 -42 -227 -201 -95 -99 -181 -184 -192
-190 -15 -8 -24 -7 -36 4 -27 23 -60 26 -112 13 -41 -11 -68 -31 -175 -131
l-126 -118 -232 -49 c-128 -26 -239 -48 -248 -48 -10 0 16 32 62 77 84 81 97
113 58 133 -12 7 -37 9 -62 4 -35 -5 -58 -22 -142 -103 -55 -53 -131 -124
-170 -159 -42 -38 -66 -65 -60 -70 6 -5 55 -26 110 -47 55 -21 142 -58 194
-82 51 -23 108 -43 127 -43 44 0 81 15 93 39 17 31 -14 57 -119 101 -53 22
-88 41 -80 44 8 3 75 14 149 26 119 19 137 19 165 7 17 -8 79 -35 138 -61 59
-25 164 -73 234 -106 138 -65 195 -75 254 -45 30 16 47 53 36 81 -5 14 -104
64 -218 110 -42 17 -62 34 -40 34 4 0 132 18 286 39 l279 39 44 -19 45 -19
-63 -47 c-35 -26 -138 -98 -229 -161 -91 -62 -165 -118 -165 -124 0 -6 27 -26
60 -44 33 -19 60 -40 60 -48 0 -9 9 -22 20 -30 11 -8 18 -17 15 -19 -3 -3 -81
-47 -173 -98 -142 -78 -168 -95 -163 -111 4 -18 1 -19 -27 -14 -18 3 -128 11
-244 17 -117 7 -213 15 -213 18 0 3 38 25 84 49 138 70 160 97 115 138 -15 14
-36 19 -73 19 -45 -1 -67 -10 -177 -72 -69 -39 -165 -91 -212 -114 -48 -24
-87 -46 -87 -50 0 -3 45 -39 100 -80 55 -41 100 -77 100 -80 0 -4 -39 -21 -87
-39 -49 -18 -103 -39 -121 -46 l-32 -13 172 -172 c171 -170 210 -199 266 -199
30 0 62 26 62 51 0 7 -39 53 -87 101 -48 49 -81 88 -73 88 32 0 340 -74 333
-80 -4 -4 -42 -16 -83 -28 -41 -12 -79 -27 -84 -32 -6 -6 22 -42 73 -96 45
-47 136 -148 201 -224 107 -124 125 -140 169 -155 28 -9 63 -15 78 -13 25 3
40 -12 155 -157 69 -88 125 -161 124 -162 -3 -4 -870 368 -879 376 -5 5 47 17
115 27 99 14 127 22 145 40 38 38 8 86 -68 108 -44 14 -59 13 -201 -14 -84
-16 -198 -34 -253 -41 -55 -6 -104 -16 -109 -20 -5 -5 16 -45 47 -92 32 -46
57 -87 57 -91 0 -4 -85 36 -190 90 -104 54 -188 100 -186 102 3 2 48 7 101 12
53 4 103 14 111 21 23 19 13 51 -26 77 -33 23 -40 24 -130 17 -52 -3 -153 -10
-223 -15 -71 -4 -130 -10 -132 -12 -2 -2 19 -42 46 -88 28 -47 72 -129 99
-182 61 -119 125 -173 174 -146 26 14 19 46 -30 136 -25 46 -44 85 -42 87 2 2
128 -68 281 -154 218 -124 283 -165 302 -193 26 -38 115 -84 143 -73 16 6 47
-11 562 -302 664 -375 1016 -576 1025 -584 9 -9 -16 -8 -329 11 -208 13 -206
13 -206 -6 0 -9 47 -103 104 -210 57 -107 102 -194 99 -194 -2 0 -57 38 -121
84 -78 56 -123 96 -136 119 -24 47 -121 114 -182 127 -41 9 -147 81 -624 421
-316 226 -582 417 -590 425 -13 13 -9 15 35 10 206 -22 245 -17 245 30 0 38
-16 61 -64 89 -35 21 -56 25 -117 25 -83 0 -344 17 -401 26 -26 4 -38 2 -38
-6 0 -6 22 -71 50 -144 27 -73 63 -177 81 -232 26 -84 37 -105 74 -141 31 -31
52 -43 73 -43 64 0 66 40 9 193 -20 54 -32 97 -27 95 17 -6 880 -681 876 -685
-7 -8 -236 30 -236 38 0 11 -64 74 -93 93 -12 8 -105 31 -207 51 -102 20 -240
50 -308 66 -68 16 -125 29 -128 29 -8 0 -3 -46 11 -100 8 -30 12 -56 10 -58
-2 -2 -49 10 -103 27 -110 34 -132 37 -132 19 0 -7 9 -65 19 -128 11 -63 29
-196 41 -295 20 -163 25 -184 51 -227 38 -59 70 -80 117 -76 l37 3 17 -175
c10 -96 17 -184 15 -194 -1 -12 -81 99 -208 290 -113 170 -208 316 -211 324
-3 8 -51 85 -106 170 -56 85 -100 156 -98 157 2 2 56 -21 121 -52 154 -72 195
-72 195 1 0 44 -54 113 -110 141 -25 13 -103 49 -174 80 -72 31 -144 69 -160
83 -17 15 -83 54 -146 87 -63 33 -158 86 -210 116 -52 31 -97 54 -100 52 -4
-2 -10 -55 -13 -117 -3 -62 -13 -174 -22 -249 -17 -134 -16 -138 3 -182 25
-56 62 -83 91 -68 26 14 28 25 41 155 5 60 12 111 14 114 3 2 44 -76 92 -175
64 -131 87 -187 86 -213 -3 -53 27 -106 76 -137 40 -26 54 -48 181 -293 464
-897 583 -1130 576 -1130 -4 0 -80 52 -169 117 -88 64 -180 130 -204 147 -26
19 -46 26 -52 20 -5 -5 -16 -78 -24 -162 -8 -84 -16 -155 -18 -157 -2 -2 -66
151 -142 341 -76 190 -136 347 -133 350 2 3 29 -15 58 -39 121 -97 218 -166
242 -172 20 -5 32 -1 51 19 35 34 34 78 -5 155 -28 55 -41 69 -132 133 -56 39
-173 125 -260 191 -128 97 -163 128 -180 163 -14 30 -48 65 -110 115 -49 39
-148 123 -219 187 -139 123 -141 124 -153 50 -4 -21 -10 -38 -14 -38 -6 0 -52
171 -51 193 0 5 39 -28 87 -72 88 -81 118 -96 142 -67 16 19 17 68 2 103 -16
38 -370 379 -376 361 -36 -106 -105 -291 -132 -358 -27 -66 -34 -94 -30 -127
6 -56 31 -93 62 -93 31 0 44 21 86 137 19 51 37 93 40 93 6 0 89 -393 89 -421
0 -8 -14 -55 -31 -105 -24 -71 -29 -100 -25 -142 8 -90 60 -141 109 -109 l23
15 88 -415 c48 -229 86 -417 84 -418 -4 -4 -151 172 -275 329 -54 69 -104 124
-111 123 -8 -1 -47 -81 -88 -177 -42 -96 -79 -178 -82 -182 -4 -4 -16 99 -25
230 -10 130 -25 320 -33 421 -8 101 -13 185 -12 187 2 2 45 -53 96 -121 82
-112 95 -125 121 -125 41 0 64 36 63 99 -2 69 -10 85 -102 202 -44 57 -122
161 -172 231 -50 71 -96 128 -102 128 -6 0 -39 -53 -74 -118 -35 -64 -100
-176 -145 -249 l-81 -132 -21 37 c-11 20 -27 38 -35 39 -9 2 -37 -31 -70 -80
-30 -45 -121 -170 -202 -277 -133 -178 -147 -200 -157 -254 -8 -42 -8 -71 -1
-98 l11 -38 -127 -158 c-148 -183 -184 -225 -184 -217 0 7 175 859 211 1025
11 52 22 96 24 99 3 2 8 -7 13 -20 5 -13 26 -73 47 -133 45 -128 69 -162 108
-152 36 9 58 46 69 112 8 51 6 60 -56 216 -35 90 -83 216 -105 281 -22 65 -44
123 -47 129 -4 6 -49 -32 -102 -83 -52 -52 -93 -87 -90 -79 3 8 33 117 68 243
35 125 67 224 70 220 4 -5 17 -46 30 -93 13 -47 29 -97 36 -111 33 -66 91 -36
108 53 5 30 -2 66 -33 165 -22 71 -52 173 -66 228 -15 55 -29 103 -32 107 -2
5 -52 -34 -111 -85 -59 -51 -142 -119 -184 -152 -61 -47 -82 -71 -98 -108 -27
-62 -18 -101 26 -105 24 -2 45 10 113 68 73 61 113 87 97 62 -2 -4 -54 -159
-114 -345 -94 -287 -115 -343 -145 -377 -41 -49 -62 -114 -54 -173 6 -43 -59
-252 -388 -1252 -53 -159 -139 -423 -192 -585 -91 -282 -113 -338 -113 -294 0
42 -70 635 -76 645 -3 5 -12 9 -19 7 -8 -2 -106 -85 -219 -186 -113 -100 -207
-182 -210 -182 -2 0 29 75 70 166 58 130 83 175 117 209 57 56 109 177 113
260 3 63 -2 53 611 1422 53 117 98 213 102 213 4 0 14 -62 24 -137 10 -77 24
-147 32 -160 34 -51 97 -17 130 71 18 47 18 50 -8 219 -15 95 -34 228 -42 296
-8 68 -17 126 -19 129 -3 2 -58 -29 -123 -70 -65 -42 -174 -108 -243 -148
-144 -83 -159 -95 -188 -154 -26 -51 -27 -74 -6 -104 27 -39 52 -31 213 70 51
32 95 57 98 55 2 -3 -130 -273 -294 -601 -333 -666 -310 -635 -312 -419 -1
111 1 123 18 133 11 5 36 42 55 81 l36 72 1 241 c0 132 4 297 7 364 4 68 4
129 0 135 -4 7 -33 -2 -85 -26 -43 -20 -81 -37 -84 -37 -3 0 0 51 7 113 16
142 17 167 3 167 -6 0 -86 -29 -178 -64 -91 -35 -242 -90 -336 -122 -141 -48
-177 -65 -212 -97 -67 -61 -94 -145 -58 -180 13 -14 -11 -24 -212 -91 -125
-42 -228 -75 -229 -73 -5 5 1078 1089 1083 1084 3 -3 -7 -57 -21 -119 -15 -62
-29 -123 -32 -136 -7 -32 38 -76 69 -66 70 22 111 83 132 197 29 160 62 293
78 318 8 13 34 90 57 171 22 81 54 186 70 234 17 48 28 89 26 92 -3 2 -80 -5
-173 -16 -92 -12 -204 -24 -248 -28 -85 -7 -129 -26 -165 -71 -26 -34 -25 -59
3 -78 21 -13 36 -13 142 0 65 8 121 13 123 11 2 -2 -67 -61 -154 -129 -121
-98 -166 -127 -196 -132 -46 -8 -138 -88 -139 -121 0 -12 -45 -55 -127 -120
-70 -56 -314 -251 -542 -435 -229 -184 -461 -370 -515 -413 -55 -44 -186 -149
-291 -233 -105 -84 -194 -153 -197 -153 -4 0 56 126 133 280 77 154 140 287
140 295 0 20 -14 19 -224 -10 -99 -14 -181 -23 -184 -21 -2 3 15 16 38 31 23
14 193 126 378 247 327 214 362 236 362 225 0 -3 -43 -88 -95 -190 -60 -116
-95 -195 -95 -215 0 -37 30 -62 77 -62 46 0 77 14 144 66 55 42 63 53 126 187
37 78 114 236 172 350 91 182 110 212 145 237 33 22 57 57 124 179 45 83 118
212 162 285 44 74 80 139 80 145 0 12 -27 19 -85 23 -39 3 -39 4 69 56 60 28
111 50 114 48 2 -3 -9 -24 -26 -48 -130 -189 -142 -248 -53 -248 69 0 114 39
192 170 39 66 104 171 145 232 69 105 82 128 69 128 -19 0 -357 53 -439 69
-87 17 -104 18 -143 6 -25 -8 -56 -24 -69 -36 -26 -25 -32 -70 -11 -87 7 -6
60 -18 118 -27 198 -31 205 -17 -65 -133 l-238 -102 -120 15 c-111 15 -122 15
-175 -2 -107 -34 -154 -108 -97 -152 24 -19 25 -21 8 -28 -11 -4 -226 -96
-478 -205 -253 -109 -462 -196 -464 -193 -5 4 194 240 357 423 56 63 101 120
101 127 0 17 -9 20 -158 45 -136 23 -314 58 -319 64 -4 4 957 277 975 276 8 0
-39 -55 -103 -123 -64 -67 -121 -132 -126 -144 -23 -60 45 -104 126 -82 76 21
111 48 210 161 55 62 135 150 179 195 74 78 79 82 99 68 25 -18 81 -19 128 -4
22 7 80 57 160 136 l125 124 235 59 c129 33 238 60 243 60 4 0 -26 -36 -68
-81 -83 -89 -95 -121 -51 -141 19 -8 35 -8 65 1 32 9 73 45 198 172 86 88 158
164 160 169 2 4 -41 23 -95 41 -54 17 -147 52 -208 76 -88 36 -119 44 -153 40
-72 -8 -106 -59 -61 -91 12 -8 61 -29 110 -46 49 -18 88 -34 86 -36 -11 -11
-302 -63 -311 -55 -6 4 -73 32 -150 61 -76 29 -188 74 -248 101 -78 35 -123
49 -154 49 -83 0 -144 -43 -129 -91 8 -23 45 -43 178 -94 54 -20 95 -40 92
-44 -4 -3 -131 -29 -283 -57 -267 -48 -279 -50 -320 -35 -23 9 -41 18 -40 22
4 11 149 125 301 238 75 56 137 106 137 110 0 4 -31 22 -69 41 -43 20 -67 38
-64 45 2 7 -6 20 -18 28 -21 15 -20 16 47 60 38 24 110 67 159 96 118 70 118
70 103 89 -12 14 5 15 156 9 93 -4 204 -7 248 -7 43 0 78 -3 78 -7 -1 -5 -44
-33 -96 -63 -53 -30 -100 -60 -106 -67 -16 -20 -1 -58 27 -71 59 -27 91 -16
254 82 86 51 182 108 214 125 31 18 57 36 57 40 0 4 -45 38 -100 76 -55 38
-100 72 -100 76 0 4 52 29 115 56 63 26 115 50 115 54 0 3 -28 30 -62 60 -35
29 -115 102 -179 161 -63 59 -127 112 -143 117 -64 25 -126 5 -126 -39 0 -11
39 -54 91 -102 49 -45 86 -84 82 -85 -16 -4 -357 63 -348 69 6 3 47 18 93 32
49 17 82 33 82 41 0 8 -26 36 -57 64 -32 27 -123 120 -203 206 -128 137 -151
158 -200 176 -34 13 -66 18 -84 15 -19 -4 -33 -1 -40 8 -6 8 -64 75 -130 150
-65 75 -117 139 -114 141 2 3 152 -52 334 -120 181 -69 380 -144 441 -167 62
-24 113 -45 113 -49 0 -3 -55 -16 -121 -28 -122 -24 -159 -42 -159 -76 0 -36
81 -85 141 -85 9 0 72 13 140 30 68 16 178 39 244 50 66 12 124 25 128 30 5 4
-19 44 -53 89 -34 46 -60 84 -57 87 2 2 90 -35 195 -83 105 -49 189 -90 186
-92 -2 -2 -46 -10 -99 -16 -52 -7 -102 -18 -110 -25 -33 -27 -11 -64 52 -89
27 -11 53 -10 150 3 65 9 160 21 211 25 51 5 95 11 98 13 2 3 -26 54 -65 114
-38 60 -88 142 -111 182 -45 80 -87 114 -134 110 -56 -6 -55 -28 6 -130 31
-51 55 -94 54 -95 -1 -1 -129 63 -285 142 -219 112 -292 154 -321 185 -42 45
-102 74 -137 65 -23 -5 -105 34 -678 330 -77 40 -318 164 -535 275 -217 112
-402 207 -410 212 -9 5 97 8 253 6 156 -1 271 2 277 8 6 6 -34 82 -106 203
-63 106 -114 195 -112 196 2 2 56 -32 120 -74 71 -46 126 -90 140 -111 33 -50
137 -117 194 -126 38 -5 126 -59 497 -301 249 -163 512 -334 586 -382 203
-132 200 -120 40 -121 -141 0 -159 -5 -159 -45 0 -31 23 -58 71 -82 41 -20 62
-22 302 -25 254 -3 258 -3 254 17 -3 11 -30 76 -60 145 -29 69 -69 166 -86
216 -38 106 -84 161 -143 170 -31 5 -38 3 -53 -19 -16 -24 -15 -29 33 -147 28
-67 44 -119 38 -117 -15 6 -917 650 -913 653 1 1 56 -5 122 -13 111 -13 122
-17 142 -42 52 -65 89 -80 266 -107 92 -13 233 -37 314 -53 81 -16 151 -27
155 -25 3 2 -3 36 -14 75 -11 39 -17 73 -14 76 3 3 55 -7 115 -23 60 -16 112
-26 115 -23 3 3 -5 57 -19 120 -20 96 -36 192 -80 465 -7 44 -70 123 -111 140
-26 11 -39 12 -55 3 -11 -6 -22 -9 -24 -7 -6 5 -56 380 -52 384 3 3 727 -985
750 -1024 5 -7 7 -15 5 -17 -1 -1 -52 17 -113 42 -120 48 -150 49 -161 6 -7
-28 15 -80 46 -108 9 -8 88 -43 176 -76 87 -34 168 -69 179 -78 18 -15 408
-211 420 -211 3 0 5 46 5 103 0 56 5 156 10 222 8 107 7 124 -10 161 -20 47
-50 68 -80 59 -24 -7 -26 -19 -37 -148 l-8 -97 -87 155 c-58 101 -88 165 -88
185 0 44 -36 109 -71 128 -28 16 -248 392 -777 1327 -46 83 -94 165 -105 184
-14 23 -16 32 -6 26 8 -5 106 -69 218 -142 113 -75 209 -132 217 -129 10 4 14
22 14 59 0 101 13 268 20 260 4 -4 23 -44 43 -88 19 -44 85 -191 146 -327 61
-136 111 -252 111 -258 0 -5 -41 20 -92 56 -134 97 -209 144 -230 144 -31 0
-58 -36 -58 -78 0 -43 39 -128 73 -159 12 -12 112 -81 222 -155 271 -181 312
-213 329 -252 10 -23 46 -58 117 -111 57 -43 161 -125 232 -182 141 -115 132
-114 152 -23 l8 35 19 -60 c10 -33 25 -81 33 -108 l14 -48 -23 18 c-13 10 -56
46 -95 81 -39 34 -80 62 -91 62 -11 0 -27 -11 -36 -25 -14 -22 -15 -31 -4 -71
12 -40 27 -58 119 -138 58 -50 140 -124 182 -163 41 -40 80 -73 87 -73 6 0 22
39 37 88 14 48 48 152 75 232 41 121 48 151 41 180 -16 70 -45 99 -84 84 -17
-6 -43 -69 -72 -171 -10 -35 -21 -63 -25 -63 -4 0 -31 94 -60 209 l-52 209 31
105 c28 95 30 110 20 156 -19 88 -73 127 -119 86 -15 -13 -25 20 -121 398 -58
226 -104 414 -102 417 2 2 21 -15 41 -38 20 -22 109 -122 196 -222 88 -99 165
-179 170 -177 6 2 17 21 25 43 87 238 130 337 135 314 3 -14 14 -104 25 -200
11 -96 32 -273 46 -393 15 -121 24 -221 22 -224 -3 -2 -46 47 -96 110 -94 119
-119 137 -157 112 -30 -19 -38 -63 -24 -127 9 -44 24 -69 91 -148 45 -52 128
-156 186 -230 58 -74 109 -136 114 -138 4 -2 44 68 88 155 43 87 105 203 136
258 47 80 59 111 62 155 6 66 -7 103 -42 126 -44 28 -63 9 -139 -135 -37 -73
-70 -131 -72 -128 -7 7 -92 1165 -92 1262 0 55 -5 113 -11 128 -6 15 -38 375
-71 800 -69 892 -68 877 -83 876 -7 -1 -63 -7 -125 -14z m1457 -1532 c-11 -60
-19 -111 -19 -115 0 -5 -4 -8 -9 -8 -9 0 -41 83 -41 107 0 12 76 123 84 123 2
0 -5 -48 -15 -107z m-155 -520 c47 -133 86 -245 86 -248 0 -4 -9 -4 -20 0 -32
10 -53 -9 -161 -149 -57 -75 -106 -130 -108 -125 -2 6 18 190 45 410 40 324
51 394 60 376 6 -12 50 -131 98 -264z m2035 -442 c-8 -11 -63 -91 -124 -177
-70 -100 -122 -165 -143 -177 -18 -11 -49 -40 -69 -66 l-36 -46 7 70 c3 39 9
104 12 146 l6 76 177 96 c97 53 178 97 180 97 2 0 -3 -9 -10 -19z m-3842 -584
c44 -128 80 -233 78 -235 -2 -2 -52 36 -112 84 -59 48 -109 88 -109 88 -1 1
10 70 24 154 14 84 28 150 31 146 3 -3 43 -110 88 -237z m4192 72 c-22 -85
-46 -177 -54 -206 l-15 -51 -171 -57 c-93 -31 -173 -55 -176 -51 -10 10 88
110 125 126 50 23 127 110 139 158 7 27 38 72 98 141 49 55 90 100 91 98 2 -2
-15 -73 -37 -158z m-5591 -414 c82 -30 154 -55 160 -55 6 0 14 -17 18 -37 3
-21 17 -91 30 -157 13 -65 24 -121 24 -124 0 -3 -16 10 -36 29 -20 18 -49 61
-64 94 -28 62 -97 135 -126 135 -9 0 -44 30 -78 67 -64 69 -91 103 -82 103 3
0 72 -25 154 -55z m-360 -369 c67 -60 122 -115 122 -123 0 -7 16 -31 36 -53
20 -22 32 -40 28 -40 -27 -1 -211 35 -220 42 -7 5 -24 41 -39 81 -87 234 -86
229 -67 215 10 -7 73 -62 140 -122z m1548 -422 c20 -31 33 -58 31 -61 -9 -8
-67 27 -67 41 0 7 -3 28 -6 45 -4 17 -4 31 0 31 3 0 22 -25 42 -56z m5183
-262 l54 -7 -273 -133 c-150 -73 -274 -131 -276 -130 -1 2 37 65 84 140 l87
137 135 -1 c74 0 159 -3 189 -6z m-1500 -15 c-2 -2 -30 -24 -62 -50 -33 -26
-62 -47 -67 -47 -4 0 0 20 8 44 15 42 19 44 67 53 46 8 65 8 54 0z m-6356
-697 c43 -13 74 -26 70 -30 -4 -4 -27 -12 -50 -17 -41 -10 -42 -10 -85 35 -24
25 -36 43 -28 40 8 -3 50 -16 93 -28z m596 -137 c-3 -38 4 -50 108 -154 59
-60 104 -109 101 -109 -6 0 -555 133 -622 151 -21 6 -36 12 -33 15 4 5 423
112 440 114 5 0 7 -8 6 -17z m-479 -268 c212 -42 406 -81 431 -86 41 -9 47
-14 51 -40 4 -28 3 -29 -21 -25 -14 3 -242 44 -506 91 -264 47 -487 88 -495
92 -20 7 108 53 135 48 11 -2 193 -38 405 -80z m7184 -84 c3 -5 -5 -11 -19
-13 -26 -5 -35 6 -12 15 19 8 25 8 31 -2z m-6496 -248 c-10 -2 -26 -2 -35 0
-10 3 -2 5 17 5 19 0 27 -2 18 -5z m-150 -128 c79 -7 146 -16 149 -19 3 -2
-22 -18 -56 -35 -89 -45 -129 -42 -214 14 -37 25 -67 48 -67 50 0 7 31 6 188
-10z m532 -22 c0 -5 -14 -16 -31 -26 -26 -14 -30 -22 -27 -45 l4 -28 -56 4
c-30 2 -59 5 -65 6 -5 2 31 24 80 49 103 52 95 49 95 40z m147 -109 c-3 -3
-12 -4 -19 -1 -8 3 -5 6 6 6 11 1 17 -2 13 -5z m-952 -204 c-3 -6 -20 -17 -36
-26 -28 -14 -32 -14 -64 6 -19 12 -35 24 -35 26 0 2 32 4 71 4 44 0 68 -4 64
-10z m7394 -92 l36 -23 -35 -3 c-19 -2 -53 1 -75 6 l-40 8 30 17 c39 21 41 21
84 -5z m-1042 -184 c-3 -3 -12 -4 -19 -1 -8 3 -5 6 6 6 11 1 17 -2 13 -5z
m263 -23 c43 -7 44 -8 20 -18 -14 -6 -56 -25 -94 -42 -38 -17 -71 -29 -74 -27
-3 3 6 10 20 15 33 12 51 37 45 61 -6 22 6 24 83 11z m510 -96 c51 -38 67 -55
53 -55 -11 0 -87 9 -168 20 -81 11 -152 20 -158 20 -42 0 119 68 164 69 28 1
51 -10 109 -54z m-805 -55 c3 -5 1 -10 -4 -10 -6 0 -11 5 -11 10 0 6 2 10 4
10 3 0 8 -4 11 -10z m555 -100 c20 -6 21 -8 5 -8 -11 0 -29 3 -40 8 -25 11 1
11 35 0z m688 -302 c276 -62 502 -115 502 -118 0 -3 -30 -14 -67 -23 l-68 -18
-310 75 c-170 42 -369 90 -442 107 -127 31 -131 33 -135 61 -3 16 0 28 6 28 6
0 237 -50 514 -112z m-7118 63 c0 -13 -30 -22 -43 -14 -7 4 -2 10 13 14 14 4
26 7 28 8 1 1 2 -3 2 -8z m6732 -197 c169 -48 302 -91 295 -95 -15 -9 -401
-89 -426 -89 -14 0 -17 6 -14 24 4 18 -11 41 -66 104 -39 45 -75 84 -81 87 -5
3 -19 20 -31 37 -21 29 -22 31 -3 26 10 -3 157 -45 326 -94z m513 -324 c21
-22 35 -40 30 -40 -19 0 -175 55 -175 61 0 9 31 16 75 18 24 1 40 -8 70 -39z
m-7385 -561 c-44 -74 -81 -137 -83 -142 -1 -4 -85 -6 -186 -5 l-184 3 263 142
c145 78 265 141 267 139 1 -1 -33 -63 -77 -137z m1210 -16 c-16 -50 -17 -50
-75 -59 l-50 -7 65 56 c35 31 66 55 68 52 2 -2 -1 -21 -8 -42z m3460 -338 c38
-24 40 -28 40 -77 0 -60 -5 -58 -54 30 -48 85 -48 86 14 47z m1391 -241 c63
-14 115 -27 117 -28 5 -5 102 -300 102 -310 0 -22 -252 240 -267 277 -8 20
-29 48 -47 62 -17 14 -28 25 -25 25 4 0 57 -12 120 -26z m-427 -299 c8 -39 87
-132 120 -141 19 -4 85 -76 155 -166 9 -12 -46 6 -155 51 -160 65 -169 70
-172 97 -3 35 -31 229 -37 264 -4 21 1 18 39 -24 25 -28 47 -63 50 -81z
m-4800 -317 c-25 -42 -83 -102 -113 -118 -60 -31 -141 -132 -141 -176 0 -19
-169 -249 -177 -240 -3 3 86 419 90 421 24 11 326 123 335 124 8 1 10 -4 6
-11z m3536 -63 c25 -22 62 -55 83 -73 l38 -33 -15 -77 c-37 -182 -49 -224 -56
-211 -10 19 -140 446 -140 460 0 13 11 5 90 -66z m-896 -485 c5 -160 3 -221
-4 -210 -27 38 -50 92 -50 117 0 21 -3 24 -10 13 -11 -18 -6 -23 -63 77 l-47
82 33 53 c19 29 54 89 78 133 l44 80 6 -60 c4 -33 9 -161 13 -285z m-2322 33
c-2 -65 -6 -131 -10 -146 -6 -23 -36 -45 -172 -127 -91 -54 -167 -97 -168 -95
-2 2 25 48 60 102 35 54 86 133 113 177 31 49 64 88 87 102 21 13 48 42 60 64
13 22 25 40 28 40 3 0 4 -53 2 -117z m1874 -385 c-9 -106 -23 -276 -31 -378
-8 -101 -15 -196 -15 -209 0 -33 -12 -18 -39 49 -63 155 -181 450 -181 454 0
2 8 2 18 -1 29 -7 71 36 167 172 49 70 91 122 93 117 2 -6 -4 -98 -12 -204z
m-250 -793 l18 -55 -39 -55 c-21 -31 -39 -54 -42 -52 -2 2 1 39 7 83 22 166
27 173 56 79z"/>
</g>
</svg>
