<?xml version="1.0" standalone="no"?>
<!DOCTYPE svg PUBLIC "-//W3C//DTD SVG 20010904//EN"
 "http://www.w3.org/TR/2001/REC-SVG-20010904/DTD/svg10.dtd">
<svg version="1.0" xmlns="http://www.w3.org/2000/svg"
 width="1280.000000pt" height="853.000000pt" viewBox="0 0 1280.000000 853.000000"
 preserveAspectRatio="xMidYMid meet">
<metadata>
Created by potrace 1.15, written by Peter Selinger 2001-2017
</metadata>
<g transform="translate(0.000000,853.000000) scale(0.100000,-0.100000)"
fill="#f09347" stroke="none">
<path d="M5176 8368 c-8 -13 -43 -80 -77 -150 -60 -124 -62 -129 -50 -167 6
-22 55 -98 108 -168 53 -70 107 -141 119 -158 l23 -30 -297 0 c-312 0 -412 -8
-662 -51 -666 -114 -1306 -417 -1820 -861 -716 -618 -1164 -1461 -1287 -2418
-25 -194 -25 -692 0 -880 67 -503 207 -941 435 -1360 419 -771 1102 -1374
1922 -1698 334 -132 652 -209 1030 -248 148 -16 551 -16 700 -1 794 83 1520
393 2100 898 299 260 560 570 763 906 77 128 210 393 258 513 120 304 214 667
247 954 l9 73 -56 -6 c-31 -3 -118 -8 -193 -12 -154 -7 -142 0 -153 -94 -12
-100 -65 -333 -106 -470 -160 -534 -444 -1007 -843 -1405 -236 -235 -481 -419
-771 -578 -673 -370 -1501 -495 -2265 -341 -530 106 -1027 338 -1455 680 -141
113 -396 368 -509 509 -396 498 -635 1060 -723 1705 -25 187 -25 649 0 830
107 760 416 1405 931 1938 358 371 836 677 1310 838 l68 24 -6 -23 c-16 -66
-18 -108 -5 -123 7 -9 71 -45 141 -80 70 -35 128 -66 128 -69 0 -2 -39 -16
-87 -31 -122 -36 -349 -127 -464 -185 -308 -154 -553 -332 -799 -579 -467
-470 -746 -1029 -853 -1710 -18 -114 -21 -179 -21 -415 0 -240 3 -301 22 -425
39 -252 93 -456 179 -675 156 -396 368 -720 668 -1021 263 -264 479 -421 800
-579 323 -159 558 -233 935 -292 178 -28 643 -25 835 5 992 155 1814 751 2253
1631 126 254 213 503 261 755 31 157 36 145 -66 139 -49 -2 -106 -6 -128 -9
l-41 -5 -18 -92 c-78 -390 -261 -789 -513 -1120 -101 -132 -300 -337 -436
-448 -403 -331 -888 -538 -1412 -605 -157 -20 -475 -22 -625 -5 -634 73 -1204
346 -1645 786 -468 466 -744 1053 -806 1708 -14 157 -7 490 15 635 149 989
793 1809 1709 2176 122 49 327 116 355 116 6 0 -5 -38 -24 -85 -18 -46 -31
-91 -27 -100 6 -18 144 -85 173 -85 27 0 254 444 241 469 -13 23 -213 161
-414 286 -103 64 -154 101 -145 106 17 9 160 43 268 63 247 45 607 66 823 48
65 -6 121 -12 123 -15 3 -3 -29 -51 -70 -108 -42 -57 -76 -111 -76 -121 0 -26
158 -200 179 -196 9 2 79 73 156 158 77 85 179 197 227 248 49 52 91 105 94
118 5 18 -9 52 -56 137 -139 248 -488 813 -527 852 -22 22 -60 18 -77 -7z"/>
<path d="M4780 6374 c-351 -41 -606 -112 -875 -244 -251 -123 -432 -250 -634
-445 -398 -386 -641 -862 -728 -1425 -25 -160 -25 -520 0 -680 111 -721 494
-1323 1092 -1716 245 -161 554 -289 842 -349 238 -49 576 -62 808 -30 630 85
1197 401 1594 888 154 189 324 491 401 712 40 113 100 344 92 348 -4 2 -45 0
-92 -3 l-84 -5 -9 -35 c-232 -924 -957 -1584 -1897 -1726 -158 -24 -472 -24
-630 0 -517 78 -978 315 -1328 681 -549 575 -759 1387 -557 2159 36 138 86
269 160 421 323 664 961 1134 1701 1251 112 18 447 30 519 20 l47 -8 -28 -30
-29 -30 70 -64 c40 -36 63 -64 54 -64 -9 0 -76 5 -148 11 -428 36 -921 -95
-1296 -343 -877 -581 -1190 -1719 -731 -2663 307 -631 899 -1061 1598 -1160
134 -19 432 -19 566 0 704 100 1305 540 1604 1174 49 102 138 350 138 384 0
14 -9 17 -47 17 -83 0 -85 -2 -116 -103 -85 -271 -242 -535 -446 -749 -548
-576 -1394 -763 -2131 -471 -680 268 -1148 882 -1231 1613 -16 143 -7 414 20
555 175 940 985 1615 1935 1615 119 0 316 -18 316 -29 0 -3 -18 -19 -40 -35
-22 -17 -40 -35 -40 -42 0 -14 83 -84 100 -84 13 0 234 134 259 156 12 11 7
22 -34 71 -27 32 -94 104 -150 161 l-100 104 40 -7 c196 -33 408 -96 577 -171
158 -70 421 -225 401 -237 -4 -2 -34 -10 -66 -17 -31 -7 -61 -18 -66 -24 -6
-7 1 -37 18 -81 l27 -70 45 2 c24 1 112 13 194 26 150 23 150 23 153 51 4 33
-36 231 -84 415 -38 145 -48 171 -68 171 -24 0 -131 -48 -141 -64 -7 -11 0
-43 23 -114 17 -54 32 -101 32 -104 0 -3 -48 23 -107 59 -293 176 -590 285
-928 338 -95 15 -485 28 -565 19z"/>
<path d="M5688 5709 c-21 -11 -38 -25 -38 -32 0 -7 16 -34 35 -61 19 -27 33
-51 31 -53 -1 -2 -44 12 -94 32 -329 127 -734 151 -1074 65 -346 -89 -646
-267 -887 -527 -217 -233 -377 -547 -440 -859 -61 -300 -40 -628 58 -924 95
-283 236 -505 457 -720 246 -238 546 -396 894 -472 93 -20 133 -22 345 -22
212 0 252 2 345 22 543 118 979 441 1233 912 44 82 119 258 133 314 l6 27 -52
-3 -53 -3 -42 -106 c-336 -855 -1297 -1283 -2160 -962 -110 40 -291 137 -395
211 -121 85 -296 260 -383 382 -81 114 -196 341 -236 467 -69 212 -98 497 -72
709 24 196 86 405 172 575 147 293 417 568 719 732 112 62 374 157 388 142 3
-2 -1 -11 -8 -20 -13 -16 1 -24 85 -52 l30 -11 -30 -7 c-495 -116 -873 -411
-1095 -855 -53 -106 -112 -285 -136 -415 -28 -149 -26 -442 4 -582 70 -325
208 -581 436 -808 230 -229 484 -367 809 -437 86 -18 133 -22 302 -22 170 0
216 3 305 23 541 116 958 463 1163 969 l26 62 -45 0 c-45 0 -45 0 -67 -52
-100 -246 -297 -494 -512 -647 -97 -68 -290 -167 -395 -202 -526 -173 -1104
-43 -1502 339 -213 204 -347 435 -419 718 -126 502 21 1040 386 1409 195 197
426 331 692 400 125 33 130 33 103 -6 -12 -16 -20 -32 -18 -34 3 -3 22 -11 43
-18 l39 -14 -100 -22 c-411 -95 -747 -359 -936 -736 -55 -109 -91 -214 -120
-349 -29 -134 -31 -388 -5 -520 58 -288 183 -523 386 -727 201 -200 424 -321
704 -381 135 -29 398 -31 530 -5 369 74 692 287 895 592 51 76 132 231 132
252 0 8 -13 13 -33 13 -31 0 -35 -4 -67 -72 -58 -123 -148 -247 -254 -353
-266 -265 -607 -398 -981 -382 -207 9 -370 50 -542 138 -569 290 -847 937
-668 1554 109 374 399 694 763 843 175 71 405 110 575 97 71 -6 86 -10 77 -20
-9 -10 -3 -19 24 -37 l35 -24 -162 4 c-122 3 -186 0 -257 -12 -506 -88 -905
-474 -1011 -977 -26 -124 -31 -341 -10 -459 128 -725 844 -1184 1551 -995 339
91 628 324 784 632 14 29 26 55 26 58 0 3 -13 5 -30 5 -25 0 -33 -7 -51 -42
-72 -143 -211 -304 -353 -410 -340 -254 -812 -298 -1204 -113 -131 62 -223
127 -328 230 -459 455 -471 1189 -27 1656 178 187 406 311 653 355 170 30 515
12 410 -21 -27 -9 -25 -16 12 -42 30 -21 33 -21 67 -6 20 8 55 22 79 30 24 8
42 19 40 23 -5 11 -141 130 -150 130 -4 0 -8 4 -8 9 0 19 255 -60 341 -105
l34 -17 -32 -9 c-18 -5 -33 -12 -33 -16 0 -4 12 -22 28 -39 l27 -31 90 13 c50
7 91 13 93 14 5 2 -32 69 -90 159 -51 78 -64 92 -87 92 -14 0 -32 -4 -40 -9
-15 -10 -16 -8 35 -78 16 -22 14 -22 -47 6 -187 84 -451 130 -654 112 -49 -4
-91 -7 -92 -6 -2 1 31 36 73 79 43 44 73 81 68 86 -11 11 -240 110 -257 111
-37 2 47 20 140 30 185 20 424 0 613 -52 107 -30 283 -100 273 -109 -4 -4 -25
-13 -45 -20 -42 -13 -42 -19 9 -79 l29 -34 114 27 c63 15 121 29 128 31 9 3 4
22 -19 67 -52 103 -159 277 -177 287 -12 6 -29 3 -54 -10z"/>
<path d="M4783 4985 c-218 -39 -449 -165 -597 -326 -402 -433 -388 -1100 31
-1515 327 -324 822 -404 1238 -199 129 63 216 127 310 226 57 61 175 224 175
243 0 3 -11 6 -24 6 -19 0 -36 -17 -80 -83 -107 -162 -291 -311 -469 -381
-148 -58 -209 -69 -387 -69 -147 -1 -176 2 -264 26 -372 100 -648 381 -747
762 -20 77 -23 113 -23 245 1 133 5 168 27 252 120 450 507 764 964 780 66 2
85 0 95 -13 7 -9 21 -21 32 -26 14 -8 -20 -12 -120 -15 -110 -5 -158 -11 -229
-32 -369 -108 -626 -388 -706 -771 -7 -33 -13 -118 -12 -190 1 -105 6 -149 26
-226 47 -178 123 -316 246 -443 124 -128 251 -207 416 -259 336 -106 704 -22
964 220 64 59 181 206 181 227 0 3 -10 6 -22 6 -17 0 -34 -17 -63 -61 -44 -67
-155 -178 -229 -228 -224 -154 -515 -205 -780 -136 -338 88 -610 375 -680 717
-21 100 -21 286 0 386 91 441 477 753 933 752 89 0 129 -11 94 -24 -17 -7 -17
-8 0 -20 15 -11 -6 -14 -130 -18 -126 -5 -161 -9 -233 -33 -304 -98 -519 -323
-601 -630 -29 -105 -32 -316 -6 -418 77 -310 298 -548 597 -645 298 -97 638
-22 866 191 66 62 144 154 144 172 0 22 -44 -9 -91 -65 -104 -123 -223 -204
-382 -258 -90 -31 -117 -36 -228 -40 -266 -10 -479 75 -656 261 -454 479 -213
1266 434 1413 117 27 358 23 350 -6 -1 -5 7 -16 18 -25 20 -16 20 -16 -1 -10
-110 30 -295 23 -420 -16 -479 -148 -711 -688 -487 -1133 47 -95 89 -150 172
-229 87 -82 180 -137 301 -179 90 -30 103 -32 240 -33 163 0 226 12 347 70
119 56 204 121 284 216 32 39 38 50 26 55 -11 4 -38 -18 -84 -66 -108 -115
-227 -186 -378 -226 -104 -27 -284 -25 -389 4 -482 137 -712 669 -480 1112 74
142 194 259 338 329 106 52 179 71 301 78 102 6 245 -10 245 -28 0 -5 -5 -9
-11 -9 -8 0 -7 -6 2 -17 12 -15 12 -16 -3 -10 -52 19 -192 28 -272 18 -302
-40 -527 -230 -618 -521 -19 -64 -23 -95 -22 -210 0 -117 4 -145 26 -212 41
-123 92 -204 188 -300 72 -72 103 -94 181 -132 132 -64 206 -79 354 -73 199 7
340 66 479 200 56 53 68 69 56 77 -10 6 -23 -2 -48 -31 -43 -50 -140 -120
-222 -158 -152 -72 -357 -81 -521 -24 -281 97 -469 361 -469 658 0 114 23 206
76 315 84 171 242 302 429 358 102 31 266 34 365 8 82 -22 201 -76 194 -88 -3
-5 0 -16 8 -25 15 -19 13 -18 -71 25 -186 97 -421 95 -614 -5 -87 -45 -218
-171 -265 -255 -213 -375 -26 -841 388 -970 62 -19 96 -23 195 -22 104 0 130
4 200 28 44 15 105 43 137 62 60 37 158 120 158 135 0 20 -24 7 -78 -42 -64
-57 -188 -121 -277 -144 -76 -19 -212 -19 -295 1 -175 41 -340 172 -419 334
-53 109 -74 209 -68 320 25 423 441 704 842 570 70 -24 175 -82 158 -87 -7 -2
-9 -12 -6 -21 5 -12 0 -11 -25 6 -74 53 -233 102 -332 102 -71 0 -192 -30
-270 -67 -98 -47 -210 -157 -263 -259 -121 -233 -78 -513 107 -699 119 -119
254 -176 421 -177 150 -1 273 43 390 139 43 34 55 49 42 51 -9 2 -38 -14 -64
-36 -262 -218 -663 -154 -849 135 -89 137 -114 329 -64 482 62 192 224 342
417 387 87 20 232 16 255 -7 15 -14 7 -15 -86 -11 -122 5 -185 -7 -283 -53
-153 -74 -270 -237 -295 -412 -37 -256 109 -499 357 -593 83 -31 227 -38 314
-15 81 21 164 63 216 109 56 49 28 45 -49 -8 -157 -107 -354 -123 -523 -42
-331 160 -399 598 -133 850 105 99 227 147 365 145 91 -2 130 -10 130 -29 0
-11 11 -15 38 -14 53 2 57 12 17 46 -31 27 -32 29 -10 23 51 -15 138 -65 195
-111 45 -37 54 -49 41 -54 -24 -8 -1 -34 43 -49 l33 -11 -5 30 c-10 46 -35
100 -47 100 -7 0 -9 -8 -5 -20 9 -27 4 -25 -31 11 l-29 32 43 -7 42 -6 -25 50
c-22 43 -23 50 -8 41 43 -23 183 -187 183 -213 0 -4 -6 -5 -14 -2 -10 4 -12
-1 -9 -19 3 -15 19 -33 44 -46 l39 -22 0 65 c0 74 -6 96 -27 96 -11 0 -14 -7
-10 -22 l6 -23 -17 21 c-9 12 -35 45 -57 73 -68 88 -219 196 -315 225 -23 7
-21 9 25 23 l50 16 -54 48 c-30 27 -52 49 -48 49 18 0 185 -73 207 -90 l25
-20 -24 0 -24 0 23 -25 c19 -21 33 -25 77 -25 29 0 53 3 53 7 0 3 -21 39 -46
80 -36 58 -50 73 -70 73 -27 0 -31 -12 -9 -30 29 -24 8 -20 -56 9 -35 17 -102
41 -148 54 l-83 24 55 23 c31 13 54 27 51 32 -3 4 -32 26 -65 49 -33 22 -59
42 -57 44 8 8 179 -35 254 -64 86 -33 216 -110 279 -165 l40 -35 -28 -1 -29 0
19 -32 c16 -27 27 -33 82 -44 36 -8 67 -11 70 -8 6 6 -32 121 -57 174 -13 26
-24 36 -45 38 -32 4 -32 1 -11 -41 l17 -31 -24 17 c-187 137 -327 201 -508
232 -101 18 -290 18 -388 0z"/>
</g>
</svg>
